<svg width="274" height="89" viewBox="0 0 274 89" fill="none" xmlns="http://www.w3.org/2000/svg">
<path d="M48.3477 64.6172C48.3477 61.2969 47.1758 58.7578 44.832 57C42.4883 55.2031 38.2695 53.3281 32.1758 51.375C26.082 49.3828 21.2578 47.4297 17.7031 45.5156C8.01563 40.2812 3.17188 33.2305 3.17188 24.3633C3.17188 19.7539 4.46094 15.6523 7.03906 12.0586C9.65625 8.42578 13.3867 5.59375 18.2305 3.5625C23.1133 1.53125 28.582 0.515625 34.6367 0.515625C40.7305 0.515625 46.1602 1.62891 50.9258 3.85547C55.6914 6.04297 59.3828 9.14844 62 13.1719C64.6562 17.1953 65.9844 21.7656 65.9844 26.8828H48.4062C48.4062 22.9766 47.1758 19.9492 44.7148 17.8008C42.2539 15.6133 38.7969 14.5195 34.3438 14.5195C30.0469 14.5195 26.707 15.4375 24.3242 17.2734C21.9414 19.0703 20.75 21.4531 20.75 24.4219C20.75 27.1953 22.1367 29.5195 24.9102 31.3945C27.7227 33.2695 31.8438 35.0273 37.2734 36.668C47.2734 39.6758 54.5586 43.4062 59.1289 47.8594C63.6992 52.3125 65.9844 57.8594 65.9844 64.5C65.9844 71.8828 63.1914 77.6836 57.6055 81.9023C52.0195 86.082 44.5 88.1719 35.0469 88.1719C28.4844 88.1719 22.5078 86.9805 17.1172 84.5977C11.7266 82.1758 7.60547 78.875 4.75391 74.6953C1.94141 70.5156 0.535156 65.6719 0.535156 60.1641H18.1719C18.1719 69.5781 23.7969 74.2852 35.0469 74.2852C39.2266 74.2852 42.4883 73.4453 44.832 71.7656C47.1758 70.0469 48.3477 67.6641 48.3477 64.6172ZM97.0977 8.01562V23.6016H107.938V36.0234H97.0977V67.6641C97.0977 70.0078 97.5469 71.6875 98.4453 72.7031C99.3438 73.7188 101.062 74.2266 103.602 74.2266C105.477 74.2266 107.137 74.0898 108.582 73.8164V86.6484C105.262 87.6641 101.844 88.1719 98.3281 88.1719C86.4531 88.1719 80.3984 82.1758 80.1641 70.1836V36.0234H70.9062V23.6016H80.1641V8.01562H97.0977ZM154.109 87C153.328 85.4766 152.762 83.582 152.41 81.3164C148.309 85.8867 142.977 88.1719 136.414 88.1719C130.203 88.1719 125.047 86.375 120.945 82.7812C116.883 79.1875 114.852 74.6562 114.852 69.1875C114.852 62.4688 117.332 57.3125 122.293 53.7188C127.293 50.125 134.5 48.3086 143.914 48.2695H151.707V44.6367C151.707 41.707 150.945 39.3633 149.422 37.6055C147.938 35.8477 145.574 34.9688 142.332 34.9688C139.48 34.9688 137.234 35.6523 135.594 37.0195C133.992 38.3867 133.191 40.2617 133.191 42.6445H116.258C116.258 38.9727 117.391 35.5742 119.656 32.4492C121.922 29.3242 125.125 26.8828 129.266 25.125C133.406 23.3281 138.055 22.4297 143.211 22.4297C151.023 22.4297 157.215 24.4023 161.785 28.3477C166.395 32.2539 168.699 37.7617 168.699 44.8711V72.3516C168.738 78.3672 169.578 82.918 171.219 86.0039V87H154.109ZM140.105 75.2227C142.605 75.2227 144.91 74.6758 147.02 73.582C149.129 72.4492 150.691 70.9453 151.707 69.0703V58.1719H145.379C136.902 58.1719 132.391 61.1016 131.844 66.9609L131.785 67.957C131.785 70.0664 132.527 71.8047 134.012 73.1719C135.496 74.5391 137.527 75.2227 140.105 75.2227ZM201.98 8.01562V23.6016H212.82V36.0234H201.98V67.6641C201.98 70.0078 202.43 71.6875 203.328 72.7031C204.227 73.7188 205.945 74.2266 208.484 74.2266C210.359 74.2266 212.02 74.0898 213.465 73.8164V86.6484C210.145 87.6641 206.727 88.1719 203.211 88.1719C191.336 88.1719 185.281 82.1758 185.047 70.1836V36.0234H175.789V23.6016H185.047V8.01562H201.98ZM256.59 69.4805C256.59 67.4102 255.555 65.7891 253.484 64.6172C251.453 63.4062 248.172 62.332 243.641 61.3945C228.562 58.2305 221.023 51.8242 221.023 42.1758C221.023 36.5508 223.348 31.8633 227.996 28.1133C232.684 24.3242 238.797 22.4297 246.336 22.4297C254.383 22.4297 260.809 24.3242 265.613 28.1133C270.457 31.9023 272.879 36.8242 272.879 42.8789H255.945C255.945 40.457 255.164 38.4648 253.602 36.9023C252.039 35.3008 249.598 34.5 246.277 34.5C243.426 34.5 241.219 35.1445 239.656 36.4336C238.094 37.7227 237.312 39.3633 237.312 41.3555C237.312 43.2305 238.191 44.7539 239.949 45.9258C241.746 47.0586 244.754 48.0547 248.973 48.9141C253.191 49.7344 256.746 50.6719 259.637 51.7266C268.582 55.0078 273.055 60.6914 273.055 68.7773C273.055 74.5586 270.574 79.2461 265.613 82.8398C260.652 86.3945 254.246 88.1719 246.395 88.1719C241.082 88.1719 236.355 87.2344 232.215 85.3594C228.113 83.4453 224.891 80.8477 222.547 77.5664C220.203 74.2461 219.031 70.6719 219.031 66.8438H235.086C235.242 69.8516 236.355 72.1562 238.426 73.7578C240.496 75.3594 243.27 76.1602 246.746 76.1602C249.988 76.1602 252.43 75.5547 254.07 74.3438C255.75 73.0938 256.59 71.4727 256.59 69.4805Z" fill="black" fill-opacity="0.05"/>
</svg>
